# xmcd CD database file
#
# Track frame offsets:
#	150
#	11750
#	26106
#	37277
#	56943
#	71548
#	86884
#	102026
#	115281
#	126710
#
# Disc length: 1977 seconds
#
# Revision: 0
# Processed by: cddbd v1.4PL0 Copyright (c) Steve Scherf et al.
# Submitted via: CDex 1.51
#
DISCID=9807b70a
DTITLE=mcguffey lane - aqua dream
DYEAR=1980
DGENRE=Country
TTITLE0=new beginning
TTITLE1=it comes from the heart
TTITLE2=dream about you
TTITLE3=tennessee
TTITLE4=don't you think about me (when i'm gone)
TTITLE5=start it all over
TTITLE6=fair weather friends
TTITLE7=fallin' timber
TTITLE8=bag of rags
TTITLE9=outlaw rider
EXTD=YEAR: 1980
EXTT0=
EXTT1=
EXTT2=
EXTT3=
EXTT4=
EXTT5=
EXTT6=
EXTT7=
EXTT8=
EXTT9=
PLAYORDER=
